<?xml version="1.0" standalone="no"?><!DOCTYPE svg PUBLIC "-//W3C//DTD SVG 1.1//EN" "http://www.w3.org/Graphics/SVG/1.1/DTD/svg11.dtd"><svg class="icon" width="88px" height="88.00px" viewBox="0 0 1024 1024" version="1.1" xmlns="http://www.w3.org/2000/svg"><path d="M930.925 518.775c0 210.246-170.428 380.646-380.659 380.646-210.232 0-380.688-170.4-380.688-380.646 0-210.245 170.456-380.659 380.688-380.659 210.231 0 380.659 170.414 380.659 380.659" fill="#F7E946" /><path d="M513.888 73.273c-39.473 0-78.641 5.234-116.4 15.537a28.424 28.424 0 0 0-3.553 1.237c-0.729 0.136-1.458 0.292-2.186 0.487-33.977 9.295-72.846 25.719-103.7 42.872-13.645 7.61-18.562 24.833-10.966 38.478 5.193 9.294 14.806 14.529 24.75 14.529 4.64 0 9.363-1.146 13.728-3.563 26.876-14.957 61.493-29.656 91.104-37.749a28.49 28.49 0 0 0 3.497-1.211 28.407 28.407 0 0 0 2.242-0.499c32.897-8.991 67.039-13.548 101.484-13.548 211.861 0 384.223 172.348 384.223 384.196 0 211.859-172.361 384.223-384.223 384.223-211.834 0-384.168-172.363-384.168-384.223 0-57.358 12.32-112.519 36.6-163.952 6.657-14.115 0.635-30.978-13.507-37.648-14.143-6.671-30.992-0.635-37.648 13.507-27.873 59.029-42.016 122.325-42.016 188.094 0 243.06 197.719 440.792 440.738 440.792 243.046 0 440.793-197.732 440.793-440.792 0.001-243.034-197.746-440.767-440.792-440.767z" fill="#213847" /><path d="M167.092 295.079a28.099 28.099 0 0 1-16.491-5.331c-12.678-9.129-15.551-26.794-6.436-39.472a442.718 442.718 0 0 1 68.972-75.574c11.712-10.233 29.666-8.99 39.887 2.804 10.247 11.794 8.977 29.652-2.818 39.9a387.472 387.472 0 0 0-60.133 65.906c-5.524 7.679-14.197 11.767-22.981 11.767zM392.019 696.373a28.196 28.196 0 0 1-13.645-3.509 28.287 28.287 0 0 1-14.64-24.776V359.991a28.288 28.288 0 0 1 14.64-24.777 28.239 28.239 0 0 1 28.754 0.87l243.765 154.063a28.275 28.275 0 0 1 13.176 23.907 28.255 28.255 0 0 1-13.176 23.906L407.128 691.994a28.279 28.279 0 0 1-15.109 4.379z m28.284-285.047v205.425l162.53-102.698-162.53-102.727z" fill="#213847" /></svg>