<?xml version="1.0" standalone="no"?><!DOCTYPE svg PUBLIC "-//W3C//DTD SVG 1.1//EN" "http://www.w3.org/Graphics/SVG/1.1/DTD/svg11.dtd"><svg class="icon" width="64px" height="64.00px" viewBox="0 0 1024 1024" version="1.1" xmlns="http://www.w3.org/2000/svg"><path d="M961.536 611.7888c-5.4784-20.48-24.6272-59.8016-63.1296-81.92-24.4224-14.0288-52.736-18.7392-82.7904-13.9776-19.3024-32.9728-56.832-62.5664-115.2512-62.1568-40.192 0.3072-75.9296 18.432-100.6592 50.9952-29.8496 39.3216-41.5232 96.8704-28.9792 143.2576 15.0016 55.5008 30.5664 92.0064 88.3712 174.6944l12.1856 17.408 21.0432-2.9184c106.1376-14.6944 161.8432-40.704 206.2336-66.6624 61.3376-35.7888 78.1824-108.2368 62.976-158.72z" fill="#F37F7E" /><path d="M774.7584 155.5968c-32.512-20.3264-114.9952-52.5824-200.1408-32.256C512.3072 138.24 461.0048 177.2032 421.9904 239.2576c-74.8032-33.1776-183.6032-34.816-274.9952 56.8832C84.5824 358.7584 56.4736 433.152 65.7408 511.232c13.2096 111.616 96.0512 199.2192 162.9696 240.384 102.1952 62.8224 204.2368 100.096 404.48 143.0016l-45.7728-72.3456c-157.7472-238.592-41.9328-398.4896 71.7824-423.4752 126.1056-27.6992 184.6784 64.4608 184.6784 64.4608l55.04 4.352c39.5264-134.144-34.3552-260.6592-124.16-312.0128zM270.848 640.1536C176.1792 542.208 162.3552 451.584 229.7856 370.7904l55.04 45.9264c-19.6096 23.4496-60.3136 72.2944 37.5808 173.6192l-51.5584 49.8176z" fill="#F5564D" /></svg>