<?xml version="1.0" standalone="no"?><!DOCTYPE svg PUBLIC "-//W3C//DTD SVG 1.1//EN" "http://www.w3.org/Graphics/SVG/1.1/DTD/svg11.dtd"><svg class="icon" width="80px" height="80.00px" viewBox="0 0 1024 1024" version="1.1" xmlns="http://www.w3.org/2000/svg"><path d="M649.6768 299.3664H278.4256s-10.4448-162.0992 120.2688-162.0992h432.6912s120.576 12.5952 120.576 139.0592v197.5808s-20.5824 136.7552-142.4896 136.7552V471.552s-8.8064-172.1856-159.7952-172.1856z" fill="#FFD833" /><path d="M948.8896 379.0848c-14.1312 0-25.6-11.4688-25.6-25.6v-12.2368c0-14.1312 11.4688-25.6 25.6-25.6s25.6 11.4688 25.6 25.6v12.2368c0 14.1312-11.4688 25.6-25.6 25.6z" fill="#44454A" /><path d="M948.8896 408.6784c-14.1312 0-25.6 11.4688-25.6 25.6v43.008c0 54.6304-38.5024 99.7888-88.2176 106.7008V471.552c0-114.2784-89.1392-207.2064-198.656-207.2064H294.5536v-1.792c0-59.392 45.5168-107.7248 101.4784-107.7248h425.8304c55.9616 0 101.4784 48.3328 101.4784 107.7248 0 14.1312 11.4688 25.6 25.6 25.6s25.6-11.4688 25.6-25.6c0-87.6544-68.5056-158.9248-152.6784-158.9248H395.9808c-84.1728 0-152.6784 71.3216-152.6784 158.9248v2.3552c-103.0656 7.4752-184.7808 97.28-184.7808 206.6432v166.5024c0 105.1648 75.4688 192.256 172.9024 205.4656l-0.512 71.7824c-0.0512 8.8064 4.4544 17.0496 11.8784 21.8112 4.1472 2.6624 8.96 3.9936 13.7216 3.9936 3.7888 0 7.5776-0.8192 11.0592-2.5088l194.6112-93.3376h174.1312c109.568 0 198.656-92.9792 198.656-207.2064v-2.4064c77.9776-7.0144 139.4176-75.3152 139.4176-158.3104v-43.008a25.46688 25.46688 0 0 0-25.4976-25.6512z m-165.0176 229.3248c0 86.016-66.1504 156.0064-147.456 156.0064H456.448c-3.84 0-7.6288 0.8704-11.0592 2.5088l-162.9184 78.1312 0.4096-54.8352a25.63072 25.63072 0 0 0-25.6-25.8048c-81.3056 0-147.5072-69.9904-147.5072-156.0064V471.552c0-86.016 66.1504-156.0064 147.5072-156.0064h379.136c81.3056 0 147.456 69.9904 147.456 156.0064v166.4512z" fill="#44454A" /><path d="M263.9872 559.616a38.3488 36.5568 90 1 0 73.1136 0 38.3488 36.5568 90 1 0-73.1136 0Z" fill="#44454A" /><path d="M404.8896 559.616a38.3488 36.5568 90 1 0 73.1136 0 38.3488 36.5568 90 1 0-73.1136 0Z" fill="#44454A" /><path d="M547.072 559.616a38.3488 36.5568 90 1 0 73.1136 0 38.3488 36.5568 90 1 0-73.1136 0Z" fill="#44454A" /></svg>